<?xml version="1.0" standalone="no"?>
<!DOCTYPE svg PUBLIC "-//W3C//DTD SVG 20010904//EN"
 "http://www.w3.org/TR/2001/REC-SVG-20010904/DTD/svg10.dtd">
<svg version="1.0" xmlns="http://www.w3.org/2000/svg"
 width="123.000000pt" height="107.000000pt" viewBox="0 0 123.000000 107.000000"
 preserveAspectRatio="xMidYMid meet">

<g transform="translate(0.000000,107.000000) scale(0.100000,-0.100000)"
fill="#000000" stroke="none">
<path d="M0 945 l0 -55 45 0 45 0 59 -122 c33 -68 91 -190 130 -273 l70 -150
295 -3 295 -2 98 192 c54 106 99 198 101 205 3 9 -12 13 -52 13 -52 0 -56 -2
-62 -26 -4 -14 -39 -85 -79 -157 l-72 -132 -220 -3 -221 -2 -34 62 c-19 35
-44 88 -56 118 -23 63 -74 176 -135 302 l-42 88 -82 0 -83 0 0 -55z"/>
<path d="M383 240 c-49 -20 -38 -123 15 -135 70 -15 110 24 97 93 -8 46 -57
64 -112 42z"/>
<path d="M813 240 c-49 -20 -38 -123 15 -135 70 -15 110 24 97 93 -8 46 -57
64 -112 42z"/>
</g>
</svg>
