<?xml version="1.0" standalone="no"?>
<!DOCTYPE svg PUBLIC "-//W3C//DTD SVG 20010904//EN"
 "http://www.w3.org/TR/2001/REC-SVG-20010904/DTD/svg10.dtd">
<svg version="1.0" xmlns="http://www.w3.org/2000/svg"
 width="96.000000pt" height="96.000000pt" viewBox="0 0 96.000000 96.000000"
 preserveAspectRatio="xMidYMid meet">

<g transform="translate(0.000000,96.000000) scale(0.100000,-0.100000)"
fill="#000000" stroke="none">
<path d="M369 827 c-57 -56 -143 -138 -191 -181 l-88 -79 0 -234 0 -233 165 0
165 0 0 150 0 150 60 0 60 0 0 -150 0 -150 165 0 165 0 0 228 0 227 -188 188
c-103 103 -192 187 -198 187 -5 0 -57 -46 -115 -103z m266 -169 l143 -133 1
-172 1 -173 -80 0 -80 0 0 150 0 150 -140 0 -140 0 0 -150 0 -150 -80 0 -80 0
0 169 0 169 145 136 c79 75 149 136 156 136 6 0 75 -60 154 -132z"/>
</g>
</svg>
