<?xml version="1.0" standalone="no"?>
<!DOCTYPE svg PUBLIC "-//W3C//DTD SVG 20010904//EN"
 "http://www.w3.org/TR/2001/REC-SVG-20010904/DTD/svg10.dtd">
<svg version="1.0" xmlns="http://www.w3.org/2000/svg"
 width="128.000000pt" height="128.000000pt" viewBox="0 0 128.000000 128.000000"
 preserveAspectRatio="xMidYMid meet">

<g transform="translate(0.000000,128.000000) scale(0.100000,-0.100000)"
fill="#000000" stroke="none">
<path d="M545 1246 c-22 -7 -60 -24 -84 -37 -24 -13 -51 -28 -60 -33 -29 -15
-99 -129 -115 -185 -32 -111 -11 -220 61 -313 24 -32 48 -58 54 -58 5 0 9 -4
9 -10 0 -5 -11 -10 -23 -10 -79 0 -307 -119 -364 -190 -9 -11 -12 -70 -13
-202 l0 -188 625 0 625 0 0 184 0 184 -39 38 c-87 87 -193 145 -295 165 -61
11 -65 16 -39 34 58 41 123 184 123 270 0 112 -68 235 -165 299 -91 61 -208
81 -300 52z m178 -150 c59 -22 107 -64 133 -120 38 -81 28 -162 -28 -231 -107
-129 -323 -103 -394 48 -31 68 -31 120 2 185 53 106 177 157 287 118z m130
-585 c82 -29 171 -78 222 -123 l45 -40 0 -94 0 -94 -480 0 -480 0 0 94 0 94
52 46 c61 54 174 111 255 130 90 20 313 13 386 -13z"/>
</g>
</svg>
